<mxfile host="app.diagrams.net" modified="2023-10-18T21:35:32.114Z" agent="Mozilla/5.0 (Windows NT 10.0; Win64; x64) AppleWebKit/537.36 (KHTML, like Gecko) Chrome/118.0.0.0 Safari/537.36" etag="eVqDHfBBGPqwIi6w04wp" version="22.0.4" type="device" pages="4">
  <diagram name="Gerenciador - Keycloak" id="K3_bYEQb9XyduSZMrKUJ">
    <mxGraphModel dx="1193" dy="659" grid="0" gridSize="10" guides="1" tooltips="1" connect="1" arrows="1" fold="1" page="1" pageScale="1" pageWidth="1169" pageHeight="827" background="#000000" math="0" shadow="0">
      <root>
        <mxCell id="0" />
        <mxCell id="1" parent="0" />
        <object placeholders="1" c4Name="Keycloak" c4Type="Identity Server" c4Description="Software System" label="&lt;font style=&quot;font-size: 16px&quot;&gt;&lt;b&gt;%c4Name%&lt;/b&gt;&lt;/font&gt;&lt;div&gt;[%c4Type%]&lt;/div&gt;&lt;br&gt;&lt;div&gt;&lt;font style=&quot;font-size: 11px&quot;&gt;&lt;font&gt;%c4Description%&lt;/font&gt;&lt;/font&gt;&lt;/div&gt;" id="gde5_JYmTBniX0Sx8_jm-18">
          <mxCell style="rounded=1;whiteSpace=wrap;html=1;labelBackgroundColor=none;fillColor=#B3B3B3;fontColor=#000000;align=center;arcSize=10;strokeColor=#0066CC;metaEdit=1;resizable=0;points=[[0.25,0,0],[0.5,0,0],[0.75,0,0],[1,0.25,0],[1,0.5,0],[1,0.75,0],[0.75,1,0],[0.5,1,0],[0.25,1,0],[0,0.75,0],[0,0.5,0],[0,0.25,0]];" vertex="1" parent="1">
            <mxGeometry x="766" y="245" width="240" height="120" as="geometry" />
          </mxCell>
        </object>
        <object placeholders="1" c4Type="Relationship" id="gde5_JYmTBniX0Sx8_jm-24">
          <mxCell style="endArrow=blockThin;html=1;fontSize=10;fontColor=#404040;strokeWidth=1;endFill=1;strokeColor=#FFFFFF;elbow=vertical;metaEdit=1;endSize=14;startSize=14;jumpStyle=arc;jumpSize=16;rounded=0;edgeStyle=orthogonalEdgeStyle;dashed=1;entryX=0.5;entryY=0;entryDx=0;entryDy=0;entryPerimeter=0;" edge="1" parent="1" source="gde5_JYmTBniX0Sx8_jm-14" target="gde5_JYmTBniX0Sx8_jm-26">
            <mxGeometry width="240" relative="1" as="geometry">
              <mxPoint x="526.4100000000001" y="463.94" as="sourcePoint" />
              <mxPoint x="530" y="503" as="targetPoint" />
              <Array as="points" />
            </mxGeometry>
          </mxCell>
        </object>
        <mxCell id="gde5_JYmTBniX0Sx8_jm-25" value="Gravar Log" style="edgeLabel;html=1;align=center;verticalAlign=middle;resizable=0;points=[];labelBackgroundColor=none;fontColor=#FFFFFF;" vertex="1" connectable="0" parent="gde5_JYmTBniX0Sx8_jm-24">
          <mxGeometry x="0.3224" y="-3" relative="1" as="geometry">
            <mxPoint x="-31" y="-29" as="offset" />
          </mxGeometry>
        </mxCell>
        <object placeholders="1" c4Type="Database" c4Container="DB Server" c4Technology="PostgreSQL " c4Description="Identity Solution Database" label="&lt;font style=&quot;font-size: 16px&quot;&gt;&lt;b&gt;%c4Type%&lt;/b&gt;&lt;/font&gt;&lt;div&gt;[%c4Container%:&amp;nbsp;%c4Technology%]&lt;/div&gt;&lt;br&gt;&lt;div&gt;&lt;font style=&quot;font-size: 11px&quot;&gt;&lt;font color=&quot;#E6E6E6&quot;&gt;%c4Description%&lt;/font&gt;&lt;/div&gt;" id="gde5_JYmTBniX0Sx8_jm-26">
          <mxCell style="shape=cylinder3;size=15;whiteSpace=wrap;html=1;boundedLbl=1;rounded=0;labelBackgroundColor=none;fillColor=#006666;fontSize=12;fontColor=#ffffff;align=center;strokeColor=#E6E6E6;metaEdit=1;points=[[0.5,0,0],[1,0.25,0],[1,0.5,0],[1,0.75,0],[0.5,1,0],[0,0.75,0],[0,0.5,0],[0,0.25,0]];resizable=0;" vertex="1" parent="1">
            <mxGeometry x="388" y="551" width="240" height="120" as="geometry" />
          </mxCell>
        </object>
        <mxCell id="gde5_JYmTBniX0Sx8_jm-31" value="" style="endArrow=classic;html=1;rounded=0;strokeColor=#FFFFFF;dashed=1;dashPattern=8 8;entryX=0.666;entryY=0.083;entryDx=0;entryDy=0;entryPerimeter=0;" edge="1" parent="1" source="gde5_JYmTBniX0Sx8_jm-14" target="NetZgn--UaT5NvP2tvQt-1">
          <mxGeometry width="50" height="50" relative="1" as="geometry">
            <mxPoint x="280" y="571" as="sourcePoint" />
            <mxPoint x="905" y="562" as="targetPoint" />
          </mxGeometry>
        </mxCell>
        <mxCell id="gde5_JYmTBniX0Sx8_jm-32" value="Notificar Credencial:&lt;br&gt;id e secret para Autorizacao" style="edgeLabel;html=1;align=center;verticalAlign=middle;resizable=0;points=[];labelBackgroundColor=none;fontColor=#FFFFFF;" vertex="1" connectable="0" parent="gde5_JYmTBniX0Sx8_jm-31">
          <mxGeometry x="-0.149" y="-2" relative="1" as="geometry">
            <mxPoint x="-33" y="17" as="offset" />
          </mxGeometry>
        </mxCell>
        <mxCell id="gde5_JYmTBniX0Sx8_jm-37" value="" style="endArrow=block;html=1;rounded=0;strokeColor=#99CCFF;entryX=0;entryY=0.5;entryDx=0;entryDy=0;entryPerimeter=0;exitX=1.001;exitY=0.67;exitDx=0;exitDy=0;exitPerimeter=0;endFill=1;strokeWidth=2;" edge="1" parent="1" source="gde5_JYmTBniX0Sx8_jm-13" target="gde5_JYmTBniX0Sx8_jm-14">
          <mxGeometry width="50" height="50" relative="1" as="geometry">
            <mxPoint x="297" y="347" as="sourcePoint" />
            <mxPoint x="453" y="347" as="targetPoint" />
            <Array as="points" />
          </mxGeometry>
        </mxCell>
        <mxCell id="gde5_JYmTBniX0Sx8_jm-38" value="Criar Domínios,&lt;br style=&quot;border-color: var(--border-color);&quot;&gt;&lt;span style=&quot;&quot;&gt;&amp;nbsp;Usuários e Escopos&lt;/span&gt;" style="edgeLabel;html=1;align=center;verticalAlign=middle;resizable=0;points=[];fontColor=#FFFFFF;labelBackgroundColor=none;" vertex="1" connectable="0" parent="gde5_JYmTBniX0Sx8_jm-37">
          <mxGeometry x="-0.149" y="-2" relative="1" as="geometry">
            <mxPoint x="7" y="-22" as="offset" />
          </mxGeometry>
        </mxCell>
        <mxCell id="gde5_JYmTBniX0Sx8_jm-39" value="" style="endArrow=block;html=1;rounded=0;strokeColor=#99CCFF;exitX=1;exitY=0.5;exitDx=0;exitDy=0;exitPerimeter=0;endFill=1;entryX=0;entryY=0.5;entryDx=0;entryDy=0;entryPerimeter=0;strokeWidth=2;" edge="1" parent="1" source="gde5_JYmTBniX0Sx8_jm-14" target="gde5_JYmTBniX0Sx8_jm-18">
          <mxGeometry width="50" height="50" relative="1" as="geometry">
            <mxPoint x="299" y="340" as="sourcePoint" />
            <mxPoint x="435" y="341" as="targetPoint" />
          </mxGeometry>
        </mxCell>
        <mxCell id="gde5_JYmTBniX0Sx8_jm-40" value="Registrar Keycloak" style="edgeLabel;html=1;align=center;verticalAlign=middle;resizable=0;points=[];labelBackgroundColor=none;fontColor=#FFFFFF;" vertex="1" connectable="0" parent="gde5_JYmTBniX0Sx8_jm-39">
          <mxGeometry x="-0.149" y="-2" relative="1" as="geometry">
            <mxPoint x="4" y="-20" as="offset" />
          </mxGeometry>
        </mxCell>
        <mxCell id="gde5_JYmTBniX0Sx8_jm-47" value="" style="endArrow=block;html=1;rounded=0;strokeColor=#99CCFF;endFill=1;entryX=0.663;entryY=-0.014;entryDx=0;entryDy=0;entryPerimeter=0;strokeWidth=2;" edge="1" parent="1" target="gde5_JYmTBniX0Sx8_jm-26">
          <mxGeometry width="50" height="50" relative="1" as="geometry">
            <mxPoint x="547" y="386" as="sourcePoint" />
            <mxPoint x="774" y="291" as="targetPoint" />
            <Array as="points">
              <mxPoint x="547" y="489" />
            </Array>
          </mxGeometry>
        </mxCell>
        <mxCell id="gde5_JYmTBniX0Sx8_jm-48" value="Manter &lt;br&gt;Credenciais" style="edgeLabel;html=1;align=center;verticalAlign=middle;resizable=0;points=[];labelBackgroundColor=none;fontColor=#FFFFFF;" vertex="1" connectable="0" parent="gde5_JYmTBniX0Sx8_jm-47">
          <mxGeometry x="-0.149" y="-2" relative="1" as="geometry">
            <mxPoint x="52" y="-1" as="offset" />
          </mxGeometry>
        </mxCell>
        <mxCell id="T6PsFuCZupLE90SYq3ma-1" style="edgeStyle=orthogonalEdgeStyle;rounded=0;orthogonalLoop=1;jettySize=auto;html=1;exitX=0.565;exitY=0.993;exitDx=0;exitDy=0;exitPerimeter=0;" edge="1" parent="1" source="gde5_JYmTBniX0Sx8_jm-13">
          <mxGeometry relative="1" as="geometry">
            <mxPoint x="805" y="472" as="targetPoint" />
          </mxGeometry>
        </mxCell>
        <object placeholders="1" c4Type="Gerenciador" c4Container="Container" c4Technology=".NET API" c4Description="Custom Identity Solution API" label="&lt;font style=&quot;font-size: 16px&quot;&gt;&lt;b&gt;%c4Type%&lt;/b&gt;&lt;/font&gt;&lt;div&gt;[%c4Container%:&amp;nbsp;%c4Technology%]&lt;/div&gt;&lt;br&gt;&lt;div&gt;&lt;font style=&quot;font-size: 11px&quot;&gt;&lt;font color=&quot;#E6E6E6&quot;&gt;%c4Description%&lt;/font&gt;&lt;/div&gt;" id="gde5_JYmTBniX0Sx8_jm-14">
          <mxCell style="shape=hexagon;size=50;perimeter=hexagonPerimeter2;whiteSpace=wrap;html=1;fixedSize=1;rounded=1;labelBackgroundColor=none;fillColor=#23A2D9;fontSize=12;fontColor=#ffffff;align=center;strokeColor=#E6E6E6;metaEdit=1;points=[[0.5,0,0],[1,0.25,0],[1,0.5,0],[1,0.75,0],[0.5,1,0],[0,0.75,0],[0,0.5,0],[0,0.25,0]];resizable=0;" vertex="1" parent="1">
            <mxGeometry x="408" y="220" width="200" height="170" as="geometry" />
          </mxCell>
        </object>
        <object placeholders="1" c4Name="Usuário Comum" c4Type="Common User" c4Description="Security Manager" label="&lt;font style=&quot;font-size: 13px;&quot;&gt;&lt;b style=&quot;font-size: 13px;&quot;&gt;%c4Name%&lt;/b&gt;&lt;/font&gt;&lt;div style=&quot;font-size: 13px;&quot;&gt;[%c4Type%]&lt;/div&gt;&lt;br style=&quot;font-size: 13px;&quot;&gt;&lt;div style=&quot;font-size: 13px;&quot;&gt;&lt;font style=&quot;font-size: 13px;&quot;&gt;&lt;font style=&quot;font-size: 13px;&quot;&gt;%c4Description%&lt;/font&gt;&lt;/font&gt;&lt;/div&gt;" id="gde5_JYmTBniX0Sx8_jm-13">
          <mxCell style="html=1;fontSize=13;dashed=0;whiteSpace=wrap;fillColor=#003366;strokeColor=#0066CC;fontColor=#FFFFFF;shape=mxgraph.c4.person2;align=center;metaEdit=1;points=[[0.5,0,0],[1,0.5,0],[1,0.75,0],[0.75,1,0],[0.5,1,0],[0.25,1,0],[0,0.75,0],[0,0.5,0]];resizable=0;" vertex="1" parent="1">
            <mxGeometry x="41" y="184" width="200" height="180" as="geometry" />
          </mxCell>
        </object>
        <object placeholders="1" c4Name="Usuário Comum" c4Type="Common User" c4Description="Developer Client" label="&lt;font style=&quot;font-size: 13px;&quot;&gt;&lt;b style=&quot;font-size: 13px;&quot;&gt;%c4Name%&lt;/b&gt;&lt;/font&gt;&lt;div style=&quot;font-size: 13px;&quot;&gt;[%c4Type%]&lt;/div&gt;&lt;br style=&quot;font-size: 13px;&quot;&gt;&lt;div style=&quot;font-size: 13px;&quot;&gt;&lt;font style=&quot;font-size: 13px;&quot;&gt;&lt;font style=&quot;font-size: 13px;&quot;&gt;%c4Description%&lt;/font&gt;&lt;/font&gt;&lt;/div&gt;" id="NetZgn--UaT5NvP2tvQt-1">
          <mxCell style="html=1;fontSize=13;dashed=0;whiteSpace=wrap;fillColor=#003366;strokeColor=#0066CC;fontColor=#FFFFFF;shape=mxgraph.c4.person2;align=center;metaEdit=1;points=[[0.5,0,0],[1,0.5,0],[1,0.75,0],[0.75,1,0],[0.5,1,0],[0.25,1,0],[0,0.75,0],[0,0.5,0]];resizable=0;" vertex="1" parent="1">
            <mxGeometry x="41" y="476" width="200" height="180" as="geometry" />
          </mxCell>
        </object>
      </root>
    </mxGraphModel>
  </diagram>
  <diagram id="f4a6yHSYucQr9Bt7lSjK" name="Controlador - Token Authorization Server">
    <mxGraphModel dx="2120" dy="1171" grid="0" gridSize="10" guides="1" tooltips="1" connect="1" arrows="1" fold="1" page="1" pageScale="1" pageWidth="1169" pageHeight="827" background="#000000" math="0" shadow="0">
      <root>
        <mxCell id="0" />
        <mxCell id="1" parent="0" />
        <object placeholders="1" c4Name="Application Clients" c4Type="API, Services, Web Apps..." c4Description="Clients" label="&lt;font style=&quot;font-size: 13px;&quot;&gt;&lt;b style=&quot;font-size: 13px;&quot;&gt;%c4Name%&lt;/b&gt;&lt;/font&gt;&lt;div style=&quot;font-size: 13px;&quot;&gt;[%c4Type%]&lt;/div&gt;&lt;br style=&quot;font-size: 13px;&quot;&gt;&lt;div style=&quot;font-size: 13px;&quot;&gt;&lt;font style=&quot;font-size: 13px;&quot;&gt;&lt;font color=&quot;#cccccc&quot; style=&quot;font-size: 13px;&quot;&gt;%c4Description%&lt;/font&gt;&lt;/font&gt;&lt;/div&gt;" id="yy_l0uGStDQoQRNgT-p3-1">
          <mxCell style="html=1;fontSize=13;dashed=0;whiteSpace=wrap;fillColor=#6C6477;strokeColor=#0066CC;fontColor=#ffffff;shape=mxgraph.c4.person2;align=center;metaEdit=1;points=[[0.5,0,0],[1,0.5,0],[1,0.75,0],[0.75,1,0],[0.5,1,0],[0.25,1,0],[0,0.75,0],[0,0.5,0]];resizable=0;" vertex="1" parent="1">
            <mxGeometry x="51" y="291" width="200" height="180" as="geometry" />
          </mxCell>
        </object>
        <object placeholders="1" c4Name="Keycloak" c4Type="Identity Server" c4Description="Software System" label="&lt;font style=&quot;font-size: 16px&quot;&gt;&lt;b&gt;%c4Name%&lt;/b&gt;&lt;/font&gt;&lt;div&gt;[%c4Type%]&lt;/div&gt;&lt;br&gt;&lt;div&gt;&lt;font style=&quot;font-size: 11px&quot;&gt;&lt;font&gt;%c4Description%&lt;/font&gt;&lt;/font&gt;&lt;/div&gt;" id="oD3-0SivE-OBAXUZqHuK-1">
          <mxCell style="rounded=1;whiteSpace=wrap;html=1;labelBackgroundColor=none;fillColor=#B3B3B3;fontColor=#000000;align=center;arcSize=10;strokeColor=#0066CC;metaEdit=1;resizable=0;points=[[0.25,0,0],[0.5,0,0],[0.75,0,0],[1,0.25,0],[1,0.5,0],[1,0.75,0],[0.75,1,0],[0.5,1,0],[0.25,1,0],[0,0.75,0],[0,0.5,0],[0,0.25,0]];" vertex="1" parent="1">
            <mxGeometry x="845" y="344" width="240" height="120" as="geometry" />
          </mxCell>
        </object>
        <object placeholders="1" c4Type="Relationship" id="oD3-0SivE-OBAXUZqHuK-2">
          <mxCell style="endArrow=blockThin;html=1;fontSize=10;fontColor=#404040;strokeWidth=1;endFill=1;strokeColor=#FFFFFF;elbow=vertical;metaEdit=1;endSize=14;startSize=14;jumpStyle=arc;jumpSize=16;rounded=0;edgeStyle=orthogonalEdgeStyle;dashed=1;entryX=0.4;entryY=0;entryDx=0;entryDy=0;entryPerimeter=0;exitX=0.405;exitY=1.001;exitDx=0;exitDy=0;exitPerimeter=0;" edge="1" parent="1" source="oD3-0SivE-OBAXUZqHuK-17" target="oD3-0SivE-OBAXUZqHuK-4">
            <mxGeometry width="240" relative="1" as="geometry">
              <mxPoint x="622.4100000000001" y="567.94" as="sourcePoint" />
              <mxPoint x="562" y="667" as="targetPoint" />
              <Array as="points" />
            </mxGeometry>
          </mxCell>
        </object>
        <mxCell id="oD3-0SivE-OBAXUZqHuK-3" value="Gravar Log" style="edgeLabel;html=1;align=center;verticalAlign=middle;resizable=0;points=[];labelBackgroundColor=none;fontColor=#FFFFFF;" vertex="1" connectable="0" parent="oD3-0SivE-OBAXUZqHuK-2">
          <mxGeometry x="0.3224" y="-3" relative="1" as="geometry">
            <mxPoint x="-31" y="-29" as="offset" />
          </mxGeometry>
        </mxCell>
        <object placeholders="1" c4Type="Database" c4Container="DB Server" c4Technology="PostgreSQL " c4Description="Identity Solution Database" label="&lt;font style=&quot;font-size: 16px&quot;&gt;&lt;b&gt;%c4Type%&lt;/b&gt;&lt;/font&gt;&lt;div&gt;[%c4Container%:&amp;nbsp;%c4Technology%]&lt;/div&gt;&lt;br&gt;&lt;div&gt;&lt;font style=&quot;font-size: 11px&quot;&gt;&lt;font color=&quot;#E6E6E6&quot;&gt;%c4Description%&lt;/font&gt;&lt;/div&gt;" id="oD3-0SivE-OBAXUZqHuK-4">
          <mxCell style="shape=cylinder3;size=15;whiteSpace=wrap;html=1;boundedLbl=1;rounded=0;labelBackgroundColor=none;fillColor=#006666;fontSize=12;fontColor=#ffffff;align=center;strokeColor=#E6E6E6;metaEdit=1;points=[[0.5,0,0],[1,0.25,0],[1,0.5,0],[1,0.75,0],[0.5,1,0],[0,0.75,0],[0,0.5,0],[0,0.25,0]];resizable=0;" vertex="1" parent="1">
            <mxGeometry x="450" y="634" width="240" height="120" as="geometry" />
          </mxCell>
        </object>
        <mxCell id="oD3-0SivE-OBAXUZqHuK-8" value="" style="endArrow=block;html=1;rounded=0;strokeColor=#99CCFF;exitX=0.946;exitY=0.406;exitDx=0;exitDy=0;exitPerimeter=0;endFill=1;entryX=-0.005;entryY=0.434;entryDx=0;entryDy=0;entryPerimeter=0;strokeWidth=2;" edge="1" parent="1" source="oD3-0SivE-OBAXUZqHuK-17" target="oD3-0SivE-OBAXUZqHuK-1">
          <mxGeometry width="50" height="50" relative="1" as="geometry">
            <mxPoint x="395" y="444" as="sourcePoint" />
            <mxPoint x="531" y="445" as="targetPoint" />
          </mxGeometry>
        </mxCell>
        <mxCell id="oD3-0SivE-OBAXUZqHuK-9" value="Solicitar Autorizacao" style="edgeLabel;html=1;align=center;verticalAlign=middle;resizable=0;points=[];labelBackgroundColor=none;fontColor=#FFFFFF;" vertex="1" connectable="0" parent="oD3-0SivE-OBAXUZqHuK-8">
          <mxGeometry x="-0.149" y="-2" relative="1" as="geometry">
            <mxPoint x="4" y="-11" as="offset" />
          </mxGeometry>
        </mxCell>
        <mxCell id="oD3-0SivE-OBAXUZqHuK-12" value="" style="endArrow=classic;html=1;rounded=0;strokeColor=#FFFFFF;exitX=0;exitY=0.75;exitDx=0;exitDy=0;exitPerimeter=0;dashed=1;dashPattern=8 8;entryX=0.937;entryY=0.632;entryDx=0;entryDy=0;entryPerimeter=0;" edge="1" parent="1" source="oD3-0SivE-OBAXUZqHuK-1" target="oD3-0SivE-OBAXUZqHuK-17">
          <mxGeometry width="50" height="50" relative="1" as="geometry">
            <mxPoint x="556" y="490" as="sourcePoint" />
            <mxPoint x="654" y="488" as="targetPoint" />
            <Array as="points" />
          </mxGeometry>
        </mxCell>
        <mxCell id="oD3-0SivE-OBAXUZqHuK-13" value="Token" style="edgeLabel;html=1;align=center;verticalAlign=middle;resizable=0;points=[];labelBackgroundColor=none;fontColor=#FFFFFF;" vertex="1" connectable="0" parent="oD3-0SivE-OBAXUZqHuK-12">
          <mxGeometry x="-0.149" y="-2" relative="1" as="geometry">
            <mxPoint x="-29" y="-9" as="offset" />
          </mxGeometry>
        </mxCell>
        <mxCell id="oD3-0SivE-OBAXUZqHuK-15" value="" style="endArrow=block;html=1;rounded=0;strokeColor=#99CCFF;endFill=1;strokeWidth=2;exitX=0.63;exitY=0.99;exitDx=0;exitDy=0;exitPerimeter=0;" edge="1" parent="1" source="oD3-0SivE-OBAXUZqHuK-17">
          <mxGeometry width="50" height="50" relative="1" as="geometry">
            <mxPoint x="643" y="490" as="sourcePoint" />
            <mxPoint x="591" y="631" as="targetPoint" />
            <Array as="points" />
          </mxGeometry>
        </mxCell>
        <mxCell id="oD3-0SivE-OBAXUZqHuK-16" value="Manter &lt;br&gt;informações&amp;nbsp;&lt;br&gt;dos Users" style="edgeLabel;html=1;align=center;verticalAlign=middle;resizable=0;points=[];labelBackgroundColor=none;fontColor=#FFFFFF;" vertex="1" connectable="0" parent="oD3-0SivE-OBAXUZqHuK-15">
          <mxGeometry x="-0.149" y="-2" relative="1" as="geometry">
            <mxPoint x="52" y="-1" as="offset" />
          </mxGeometry>
        </mxCell>
        <object placeholders="1" c4Type="Cotrolador" c4Container="Container" c4Technology=".NET API" c4Description="Custom Authorization Server" label="&lt;font style=&quot;font-size: 16px&quot;&gt;&lt;b&gt;%c4Type%&lt;/b&gt;&lt;/font&gt;&lt;div&gt;[%c4Container%:&amp;nbsp;%c4Technology%]&lt;/div&gt;&lt;br&gt;&lt;div&gt;&lt;font style=&quot;font-size: 11px&quot;&gt;&lt;font color=&quot;#E6E6E6&quot;&gt;%c4Description%&lt;/font&gt;&lt;/div&gt;" id="oD3-0SivE-OBAXUZqHuK-17">
          <mxCell style="shape=hexagon;size=50;perimeter=hexagonPerimeter2;whiteSpace=wrap;html=1;fixedSize=1;rounded=1;labelBackgroundColor=none;fillColor=#23A2D9;fontSize=12;fontColor=#ffffff;align=center;strokeColor=#E6E6E6;metaEdit=1;points=[[0.5,0,0],[1,0.25,0],[1,0.5,0],[1,0.75,0],[0.5,1,0],[0,0.75,0],[0,0.5,0],[0,0.25,0]];resizable=0;" vertex="1" parent="1">
            <mxGeometry x="465" y="327" width="200" height="170" as="geometry" />
          </mxCell>
        </object>
        <mxCell id="oD3-0SivE-OBAXUZqHuK-18" value="" style="endArrow=block;html=1;rounded=0;strokeColor=#FFFFFF;exitX=1;exitY=0.5;exitDx=0;exitDy=0;exitPerimeter=0;endFill=1;entryX=0.056;entryY=0.395;entryDx=0;entryDy=0;entryPerimeter=0;" edge="1" parent="1" target="oD3-0SivE-OBAXUZqHuK-17">
          <mxGeometry width="50" height="50" relative="1" as="geometry">
            <mxPoint x="253.00000000000023" y="395" as="sourcePoint" />
            <mxPoint x="923" y="441" as="targetPoint" />
          </mxGeometry>
        </mxCell>
        <mxCell id="oD3-0SivE-OBAXUZqHuK-19" value="Solictar Autorização" style="edgeLabel;html=1;align=center;verticalAlign=middle;resizable=0;points=[];labelBackgroundColor=none;fontColor=#FFFFFF;" vertex="1" connectable="0" parent="oD3-0SivE-OBAXUZqHuK-18">
          <mxGeometry x="-0.149" y="-2" relative="1" as="geometry">
            <mxPoint x="4" y="-11" as="offset" />
          </mxGeometry>
        </mxCell>
        <mxCell id="oD3-0SivE-OBAXUZqHuK-21" value="" style="endArrow=classic;html=1;rounded=0;strokeColor=#FFFFFF;dashed=1;dashPattern=8 8;entryX=1;entryY=0.75;entryDx=0;entryDy=0;entryPerimeter=0;exitX=0.074;exitY=0.665;exitDx=0;exitDy=0;exitPerimeter=0;" edge="1" parent="1" source="oD3-0SivE-OBAXUZqHuK-17">
          <mxGeometry width="50" height="50" relative="1" as="geometry">
            <mxPoint x="531" y="440" as="sourcePoint" />
            <mxPoint x="253.00000000000023" y="440" as="targetPoint" />
            <Array as="points" />
          </mxGeometry>
        </mxCell>
        <mxCell id="oD3-0SivE-OBAXUZqHuK-22" value="Token" style="edgeLabel;html=1;align=center;verticalAlign=middle;resizable=0;points=[];labelBackgroundColor=none;fontColor=#FFFFFF;" vertex="1" connectable="0" parent="oD3-0SivE-OBAXUZqHuK-21">
          <mxGeometry x="-0.149" y="-2" relative="1" as="geometry">
            <mxPoint x="-29" y="-9" as="offset" />
          </mxGeometry>
        </mxCell>
        <object placeholders="1" c4Name="Usuário Comum" c4Type="Common User" c4Description="Developer Client" label="&lt;font style=&quot;font-size: 13px;&quot;&gt;&lt;b style=&quot;font-size: 13px;&quot;&gt;%c4Name%&lt;/b&gt;&lt;/font&gt;&lt;div style=&quot;font-size: 13px;&quot;&gt;[%c4Type%]&lt;/div&gt;&lt;br style=&quot;font-size: 13px;&quot;&gt;&lt;div style=&quot;font-size: 13px;&quot;&gt;&lt;font style=&quot;font-size: 13px;&quot;&gt;&lt;font style=&quot;font-size: 13px;&quot;&gt;%c4Description%&lt;/font&gt;&lt;/font&gt;&lt;/div&gt;" id="y1dA6ctd7gwSLEFGB7a_-1">
          <mxCell style="html=1;fontSize=13;dashed=0;whiteSpace=wrap;fillColor=#003366;strokeColor=#0066CC;fontColor=#FFFFFF;shape=mxgraph.c4.person2;align=center;metaEdit=1;points=[[0.5,0,0],[1,0.5,0],[1,0.75,0],[0.75,1,0],[0.5,1,0],[0.25,1,0],[0,0.75,0],[0,0.5,0]];resizable=0;" vertex="1" parent="1">
            <mxGeometry x="51" y="20" width="200" height="180" as="geometry" />
          </mxCell>
        </object>
        <mxCell id="y1dA6ctd7gwSLEFGB7a_-2" value="" style="endArrow=classic;html=1;rounded=0;strokeColor=#FFFFFF;dashed=1;dashPattern=8 8;exitX=0.5;exitY=1;exitDx=0;exitDy=0;exitPerimeter=0;" edge="1" parent="1" source="y1dA6ctd7gwSLEFGB7a_-1" target="yy_l0uGStDQoQRNgT-p3-1">
          <mxGeometry width="50" height="50" relative="1" as="geometry">
            <mxPoint x="143" y="470" as="sourcePoint" />
            <mxPoint x="253" y="352" as="targetPoint" />
            <Array as="points" />
          </mxGeometry>
        </mxCell>
        <mxCell id="y1dA6ctd7gwSLEFGB7a_-3" value="Informar Credenciais/&lt;br&gt;Solicitar Autorização" style="edgeLabel;html=1;align=center;verticalAlign=middle;resizable=0;points=[];labelBackgroundColor=none;fontColor=#FFFFFF;" vertex="1" connectable="0" parent="y1dA6ctd7gwSLEFGB7a_-2">
          <mxGeometry x="-0.149" y="-2" relative="1" as="geometry">
            <mxPoint x="67" y="-1" as="offset" />
          </mxGeometry>
        </mxCell>
      </root>
    </mxGraphModel>
  </diagram>
  <diagram id="egCFVIydDsNo-yWKC8ul" name="Consumir - Resource Server">
    <mxGraphModel dx="1363" dy="753" grid="0" gridSize="10" guides="1" tooltips="1" connect="1" arrows="1" fold="1" page="1" pageScale="1" pageWidth="1169" pageHeight="827" background="#000000" math="0" shadow="0">
      <root>
        <mxCell id="0" />
        <mxCell id="1" parent="0" />
        <object placeholders="1" c4Name="Application Clients" c4Type="API, Services, Web Apps..." c4Description="Clients" label="&lt;font style=&quot;font-size: 13px;&quot;&gt;&lt;b style=&quot;font-size: 13px;&quot;&gt;%c4Name%&lt;/b&gt;&lt;/font&gt;&lt;div style=&quot;font-size: 13px;&quot;&gt;[%c4Type%]&lt;/div&gt;&lt;br style=&quot;font-size: 13px;&quot;&gt;&lt;div style=&quot;font-size: 13px;&quot;&gt;&lt;font style=&quot;font-size: 13px;&quot;&gt;&lt;font color=&quot;#cccccc&quot; style=&quot;font-size: 13px;&quot;&gt;%c4Description%&lt;/font&gt;&lt;/font&gt;&lt;/div&gt;" id="WNe1QRyRx5f_yva1SwZ5-1">
          <mxCell style="html=1;fontSize=13;dashed=0;whiteSpace=wrap;fillColor=#6C6477;strokeColor=#0066CC;fontColor=#ffffff;shape=mxgraph.c4.person2;align=center;metaEdit=1;points=[[0.5,0,0],[1,0.5,0],[1,0.75,0],[0.75,1,0],[0.5,1,0],[0.25,1,0],[0,0.75,0],[0,0.5,0]];resizable=0;" vertex="1" parent="1">
            <mxGeometry x="48" y="327" width="200" height="180" as="geometry" />
          </mxCell>
        </object>
        <mxCell id="WNe1QRyRx5f_yva1SwZ5-13" value="" style="endArrow=block;html=1;rounded=0;strokeColor=#FFFFFF;exitX=1;exitY=0.5;exitDx=0;exitDy=0;exitPerimeter=0;endFill=1;entryX=0.049;entryY=0.409;entryDx=0;entryDy=0;entryPerimeter=0;" edge="1" parent="1" target="X4uhM3XwHNd5rl-uWIdL-1">
          <mxGeometry width="50" height="50" relative="1" as="geometry">
            <mxPoint x="250.00000000000023" y="431" as="sourcePoint" />
            <mxPoint x="497.20000000000005" y="432.6600000000001" as="targetPoint" />
          </mxGeometry>
        </mxCell>
        <mxCell id="WNe1QRyRx5f_yva1SwZ5-14" value="Solictar recurso[token]" style="edgeLabel;html=1;align=center;verticalAlign=middle;resizable=0;points=[];labelBackgroundColor=none;fontColor=#FFFFFF;" vertex="1" connectable="0" parent="WNe1QRyRx5f_yva1SwZ5-13">
          <mxGeometry x="-0.149" y="-2" relative="1" as="geometry">
            <mxPoint x="4" y="-11" as="offset" />
          </mxGeometry>
        </mxCell>
        <mxCell id="WNe1QRyRx5f_yva1SwZ5-15" value="&lt;font style=&quot;background-color: rgb(0, 0, 0);&quot; color=&quot;#ffffff&quot;&gt;recurso&lt;/font&gt;" style="endArrow=classic;html=1;rounded=0;strokeColor=#FFFFFF;dashed=1;dashPattern=8 8;entryX=1;entryY=0.75;entryDx=0;entryDy=0;entryPerimeter=0;exitX=0.064;exitY=0.596;exitDx=0;exitDy=0;exitPerimeter=0;labelBackgroundColor=none;" edge="1" parent="1" source="X4uhM3XwHNd5rl-uWIdL-1" target="WNe1QRyRx5f_yva1SwZ5-1">
          <mxGeometry x="-0.0484" y="-5" width="50" height="50" relative="1" as="geometry">
            <mxPoint x="498.20000000000005" y="477.84000000000003" as="sourcePoint" />
            <mxPoint x="250.00000000000023" y="476" as="targetPoint" />
            <Array as="points" />
            <mxPoint as="offset" />
          </mxGeometry>
        </mxCell>
        <object placeholders="1" c4Name="Usuário Comum" c4Type="Common User" c4Description="Client" label="&lt;font style=&quot;font-size: 13px;&quot;&gt;&lt;b style=&quot;font-size: 13px;&quot;&gt;%c4Name%&lt;/b&gt;&lt;/font&gt;&lt;div style=&quot;font-size: 13px;&quot;&gt;[%c4Type%]&lt;/div&gt;&lt;br style=&quot;font-size: 13px;&quot;&gt;&lt;div style=&quot;font-size: 13px;&quot;&gt;&lt;font style=&quot;font-size: 13px;&quot;&gt;&lt;font style=&quot;font-size: 13px;&quot;&gt;%c4Description%&lt;/font&gt;&lt;/font&gt;&lt;/div&gt;" id="WNe1QRyRx5f_yva1SwZ5-17">
          <mxCell style="html=1;fontSize=13;dashed=0;whiteSpace=wrap;fillColor=#003366;strokeColor=#0066CC;fontColor=#FFFFFF;shape=mxgraph.c4.person2;align=center;metaEdit=1;points=[[0.5,0,0],[1,0.5,0],[1,0.75,0],[0.75,1,0],[0.5,1,0],[0.25,1,0],[0,0.75,0],[0,0.5,0]];resizable=0;" vertex="1" parent="1">
            <mxGeometry x="48" y="56" width="200" height="180" as="geometry" />
          </mxCell>
        </object>
        <mxCell id="WNe1QRyRx5f_yva1SwZ5-18" value="" style="endArrow=classic;html=1;rounded=0;strokeColor=#FFFFFF;dashed=1;dashPattern=8 8;exitX=0.5;exitY=1;exitDx=0;exitDy=0;exitPerimeter=0;" edge="1" parent="1" source="WNe1QRyRx5f_yva1SwZ5-17" target="WNe1QRyRx5f_yva1SwZ5-1">
          <mxGeometry width="50" height="50" relative="1" as="geometry">
            <mxPoint x="140" y="506" as="sourcePoint" />
            <mxPoint x="250" y="388" as="targetPoint" />
            <Array as="points" />
          </mxGeometry>
        </mxCell>
        <mxCell id="WNe1QRyRx5f_yva1SwZ5-19" value="Informar Credenciais/&lt;br&gt;Solicitar Autorização" style="edgeLabel;html=1;align=center;verticalAlign=middle;resizable=0;points=[];labelBackgroundColor=none;fontColor=#FFFFFF;" vertex="1" connectable="0" parent="WNe1QRyRx5f_yva1SwZ5-18">
          <mxGeometry x="-0.149" y="-2" relative="1" as="geometry">
            <mxPoint x="67" y="-1" as="offset" />
          </mxGeometry>
        </mxCell>
        <object placeholders="1" c4Type="POC.api.pix" c4Container="Container" c4Technology=".NET API" c4Description="Resource Server" label="&lt;font style=&quot;font-size: 16px&quot;&gt;&lt;b&gt;%c4Type%&lt;/b&gt;&lt;/font&gt;&lt;div&gt;[%c4Container%:&amp;nbsp;%c4Technology%]&lt;/div&gt;&lt;br&gt;&lt;div&gt;&lt;font style=&quot;font-size: 11px&quot;&gt;&lt;font color=&quot;#E6E6E6&quot;&gt;%c4Description%&lt;/font&gt;&lt;/div&gt;" id="X4uhM3XwHNd5rl-uWIdL-1">
          <mxCell style="shape=hexagon;size=50;perimeter=hexagonPerimeter2;whiteSpace=wrap;html=1;fixedSize=1;rounded=1;labelBackgroundColor=none;fillColor=#23A2D9;fontSize=12;fontColor=#ffffff;align=center;strokeColor=#E6E6E6;metaEdit=1;points=[[0.5,0,0],[1,0.25,0],[1,0.5,0],[1,0.75,0],[0.5,1,0],[0,0.75,0],[0,0.5,0],[0,0.25,0]];resizable=0;" vertex="1" parent="1">
            <mxGeometry x="487" y="361" width="200" height="170" as="geometry" />
          </mxCell>
        </object>
        <object placeholders="1" c4Type="POC.api.carteira" c4Container="Container" c4Technology=".NET API" c4Description="Resource Server" label="&lt;font style=&quot;font-size: 16px&quot;&gt;&lt;b&gt;%c4Type%&lt;/b&gt;&lt;/font&gt;&lt;div&gt;[%c4Container%:&amp;nbsp;%c4Technology%]&lt;/div&gt;&lt;br&gt;&lt;div&gt;&lt;font style=&quot;font-size: 11px&quot;&gt;&lt;font color=&quot;#E6E6E6&quot;&gt;%c4Description%&lt;/font&gt;&lt;/div&gt;" id="X4uhM3XwHNd5rl-uWIdL-2">
          <mxCell style="shape=hexagon;size=50;perimeter=hexagonPerimeter2;whiteSpace=wrap;html=1;fixedSize=1;rounded=1;labelBackgroundColor=none;fillColor=#23A2D9;fontSize=12;fontColor=#ffffff;align=center;strokeColor=#E6E6E6;metaEdit=1;points=[[0.5,0,0],[1,0.25,0],[1,0.5,0],[1,0.75,0],[0.5,1,0],[0,0.75,0],[0,0.5,0],[0,0.25,0]];resizable=0;" vertex="1" parent="1">
            <mxGeometry x="487" y="602" width="200" height="170" as="geometry" />
          </mxCell>
        </object>
        <mxCell id="X4uhM3XwHNd5rl-uWIdL-3" value="" style="endArrow=block;html=1;rounded=0;strokeColor=#FFFFFF;exitX=0.962;exitY=0.948;exitDx=0;exitDy=0;exitPerimeter=0;endFill=1;entryX=0.155;entryY=0.175;entryDx=0;entryDy=0;entryPerimeter=0;" edge="1" parent="1" source="WNe1QRyRx5f_yva1SwZ5-1" target="X4uhM3XwHNd5rl-uWIdL-2">
          <mxGeometry width="50" height="50" relative="1" as="geometry">
            <mxPoint x="260.0000000000002" y="441" as="sourcePoint" />
            <mxPoint x="507" y="441" as="targetPoint" />
          </mxGeometry>
        </mxCell>
        <mxCell id="X4uhM3XwHNd5rl-uWIdL-4" value="Solictar recurso[token]" style="edgeLabel;html=1;align=center;verticalAlign=middle;resizable=0;points=[];labelBackgroundColor=none;fontColor=#FFFFFF;" vertex="1" connectable="0" parent="X4uhM3XwHNd5rl-uWIdL-3">
          <mxGeometry x="-0.149" y="-2" relative="1" as="geometry">
            <mxPoint x="69" y="-7" as="offset" />
          </mxGeometry>
        </mxCell>
        <mxCell id="X4uhM3XwHNd5rl-uWIdL-5" value="" style="endArrow=classic;html=1;rounded=0;strokeColor=#FFFFFF;dashed=1;dashPattern=8 8;exitX=0.064;exitY=0.306;exitDx=0;exitDy=0;exitPerimeter=0;" edge="1" parent="1" source="X4uhM3XwHNd5rl-uWIdL-2">
          <mxGeometry width="50" height="50" relative="1" as="geometry">
            <mxPoint x="515" y="485" as="sourcePoint" />
            <mxPoint x="202" y="509" as="targetPoint" />
            <Array as="points" />
          </mxGeometry>
        </mxCell>
        <mxCell id="X4uhM3XwHNd5rl-uWIdL-12" value="recurso" style="edgeLabel;html=1;align=center;verticalAlign=middle;resizable=0;points=[];labelBackgroundColor=none;fontColor=#FFFFFF;" vertex="1" connectable="0" parent="X4uhM3XwHNd5rl-uWIdL-5">
          <mxGeometry x="0.026" relative="1" as="geometry">
            <mxPoint x="-6" y="17" as="offset" />
          </mxGeometry>
        </mxCell>
        <object placeholders="1" c4Type="POC.api.cartao" c4Container="Container" c4Technology=".NET API" c4Description="Resource Server" label="&lt;font style=&quot;font-size: 16px&quot;&gt;&lt;b&gt;%c4Type%&lt;/b&gt;&lt;/font&gt;&lt;div&gt;[%c4Container%:&amp;nbsp;%c4Technology%]&lt;/div&gt;&lt;br&gt;&lt;div&gt;&lt;font style=&quot;font-size: 11px&quot;&gt;&lt;font color=&quot;#E6E6E6&quot;&gt;%c4Description%&lt;/font&gt;&lt;/div&gt;" id="X4uhM3XwHNd5rl-uWIdL-6">
          <mxCell style="shape=hexagon;size=50;perimeter=hexagonPerimeter2;whiteSpace=wrap;html=1;fixedSize=1;rounded=1;labelBackgroundColor=none;fillColor=#23A2D9;fontSize=12;fontColor=#ffffff;align=center;strokeColor=#E6E6E6;metaEdit=1;points=[[0.5,0,0],[1,0.25,0],[1,0.5,0],[1,0.75,0],[0.5,1,0],[0,0.75,0],[0,0.5,0],[0,0.25,0]];resizable=0;" vertex="1" parent="1">
            <mxGeometry x="477" y="97" width="200" height="170" as="geometry" />
          </mxCell>
        </object>
        <mxCell id="X4uhM3XwHNd5rl-uWIdL-7" value="" style="endArrow=block;html=1;rounded=0;strokeColor=#FFFFFF;exitX=0.871;exitY=0.353;exitDx=0;exitDy=0;exitPerimeter=0;endFill=1;entryX=0.017;entryY=0.555;entryDx=0;entryDy=0;entryPerimeter=0;" edge="1" parent="1" source="WNe1QRyRx5f_yva1SwZ5-1" target="X4uhM3XwHNd5rl-uWIdL-6">
          <mxGeometry width="50" height="50" relative="1" as="geometry">
            <mxPoint x="250" y="508" as="sourcePoint" />
            <mxPoint x="473" y="186" as="targetPoint" />
          </mxGeometry>
        </mxCell>
        <mxCell id="X4uhM3XwHNd5rl-uWIdL-8" value="Solictar recurso[token]" style="edgeLabel;html=1;align=center;verticalAlign=middle;resizable=0;points=[];labelBackgroundColor=none;fontColor=#FFFFFF;" vertex="1" connectable="0" parent="X4uhM3XwHNd5rl-uWIdL-7">
          <mxGeometry x="-0.149" y="-2" relative="1" as="geometry">
            <mxPoint x="55" y="-102" as="offset" />
          </mxGeometry>
        </mxCell>
        <mxCell id="X4uhM3XwHNd5rl-uWIdL-9" value="" style="endArrow=classic;html=1;rounded=0;strokeColor=#FFFFFF;dashed=1;dashPattern=8 8;exitX=0.103;exitY=0.743;exitDx=0;exitDy=0;exitPerimeter=0;entryX=1;entryY=0.5;entryDx=0;entryDy=0;entryPerimeter=0;" edge="1" parent="1" source="X4uhM3XwHNd5rl-uWIdL-6" target="WNe1QRyRx5f_yva1SwZ5-1">
          <mxGeometry width="50" height="50" relative="1" as="geometry">
            <mxPoint x="510" y="664" as="sourcePoint" />
            <mxPoint x="212" y="519" as="targetPoint" />
            <Array as="points" />
          </mxGeometry>
        </mxCell>
        <mxCell id="X4uhM3XwHNd5rl-uWIdL-10" value="recurso" style="edgeLabel;html=1;align=center;verticalAlign=middle;resizable=0;points=[];labelBackgroundColor=none;fontColor=#FFFFFF;" vertex="1" connectable="0" parent="X4uhM3XwHNd5rl-uWIdL-9">
          <mxGeometry x="-0.2335" y="-3" relative="1" as="geometry">
            <mxPoint x="16" y="13" as="offset" />
          </mxGeometry>
        </mxCell>
      </root>
    </mxGraphModel>
  </diagram>
  <diagram id="LzAWiSu5K5A964BHP_aW" name="Auditoria Log">
    <mxGraphModel dx="636" dy="351" grid="1" gridSize="10" guides="1" tooltips="1" connect="1" arrows="1" fold="1" page="1" pageScale="1" pageWidth="1169" pageHeight="827" background="#000000" math="0" shadow="0">
      <root>
        <mxCell id="0" />
        <mxCell id="1" parent="0" />
        <mxCell id="XG7dGOUFL4wSy2K05g5H-1" value="" style="verticalLabelPosition=bottom;verticalAlign=top;html=1;shape=mxgraph.basic.rect;fillColor2=none;strokeWidth=1;size=20;indent=5;fillColor=none;strokeColor=#CCCCCC;" vertex="1" parent="1">
          <mxGeometry x="20" y="290" width="100" height="200" as="geometry" />
        </mxCell>
        <mxCell id="XG7dGOUFL4wSy2K05g5H-3" value="client" style="image;aspect=fixed;perimeter=ellipsePerimeter;html=1;align=center;shadow=0;dashed=0;fontColor=#4277BB;labelBackgroundColor=default;fontSize=12;spacingTop=3;image=img/lib/ibm/security/api_security.svg;" vertex="1" parent="1">
          <mxGeometry x="40" y="310" width="60" height="60" as="geometry" />
        </mxCell>
      </root>
    </mxGraphModel>
  </diagram>
</mxfile>
